# xmcd CD database file
#
# Track frame offsets:
#	150
#	21877
#	43875
#	65750
#	87640
#	109637
#	131560
#	153412
#	175072
#	197007
#	218862
#	240762
#	262570
#	284450
#	306255
#
# Disc length: 4389 seconds
#
# Revision: 1
# Processed by: cddbd v1.5.1PL0 Copyright (c) Steve Scherf et al.
# Submitted via: CDex 1.51
#
DISCID=cf11230f
DTITLE=A Rhythmic Vocabulary - Timelines
DYEAR=1997
DGENRE=Salsa
TTITLE0=Timeline in four (son clave)-55 ppm
TTITLE1=65 ppm
TTITLE2=75 ppm
TTITLE3=85 ppm
TTITLE4=100 ppm
TTITLE5=120 ppm
TTITLE6=140 ppm
TTITLE7=Timeline in six (6/8 bell)-65 ppm
TTITLE8=75 ppm
TTITLE9=85 ppm
TTITLE10=95 ppm
TTITLE11=105 ppm
TTITLE12=125 ppm
TTITLE13=140 ppm
TTITLE14=Scratch It (from Jaguar at Half Moon Lake)
EXTD=YEAR: 1997
EXTT0=
EXTT1=
EXTT2=
EXTT3=
EXTT4=
EXTT5=
EXTT6=
EXTT7=
EXTT8=
EXTT9=
EXTT10=
EXTT11=
EXTT12=
EXTT13=
EXTT14=
PLAYORDER=
